PathFileType	4	(X/Y/Z)	pose_F01_0-96.trc
DataRate	CameraRate	NumFrames	NumMarkers	Units	OrigDataRate	OrigDataStartFrame	OrigNumFrames
30	30	8	21	m	30	84	96
Frame#	Time	CHip			RHip			RKnee			RAnkle			RBigToe			RSmallToe			RHeel			LHip			LKnee			LAnkle			LBigToe			LSmallToe			LHeel			Neck			Nose			RShoulder			RElbow			RWrist			LShoulder			LElbow			LWrist			
		X1	Y1	Z1	X2	Y2	Z2	X3	Y3	Z3	X4	Y4	Z4	X5	Y5	Z5	X6	Y6	Z6	X7	Y7	Z7	X8	Y8	Z8	X9	Y9	Z9	X10	Y10	Z10	X11	Y11	Z11	X12	Y12	Z12	X13	Y13	Z13	X14	Y14	Z14	X15	Y15	Z15	X16	Y16	Z16	X17	Y17	Z17	X18	Y18	Z18	X19	Y19	Z19	X20	Y20	Z20	X21	Y21	Z21	
84	2.8	-0.21773225364463475	1.8389971083313104	-0.4444860118120483	-0.22862987748018312	1.8369964634226967	-0.37715260432134656	-0.22079418950591367	1.7086319282823572	-0.37700319305252167	-0.22131321006935573	1.5795484050920559	-0.3747963693023625	-0.24468594867935997	1.5779836981241064	-0.32824288865494033	-0.24231096407860958	1.5869471271135	-0.3080219138096715	-0.2149824255493197	1.5701318107118762	-0.39021708697039825	-0.2094130090117391	1.8406509200531043	-0.507006794998082	-0.2088890195159066	1.7089988093483615	-0.4865395728852582	-0.21015973216620484	1.5781444395535107	-0.4741798183886812	-0.2352198268140465	1.5442850213927157	-0.4527931960642653	-0.2297736304383851	1.5452071158308007	-0.4850663287055098	-0.20127361272632657	1.5692561852226192	-0.4732198831175018	-0.20636428004695467	1.9906414449504481	-0.47990364669841384	-0.22174613461835446	2.055960949796365	-0.478296134012282	-0.21766215615075965	1.9880283198491975	-0.3882736752562119	-0.2234568638444839	1.922209611662401	-0.32425372346884307	-0.2437755784196521	1.8999666578144194	-0.27022471581621194	-0.18879063843971192	1.9937340855692836	-0.5758511971247955	-0.18105016734995516	1.9380911941899683	-0.6610360154493814	-0.20270365789896908	1.9666037343336813	-0.685597364875787
85	2.8333333333333335	-0.21914119207769014	1.838147273318817	-0.447520136025611	-0.22880793184126244	1.8359010365241264	-0.37709518717601936	-0.222011471624696	1.707296564692605	-0.3801446016132288	-0.22037064746583504	1.5796847480587553	-0.3758704743160507	-0.24468594867935997	1.5779836981241064	-0.32824288865494033	-0.24231096407860958	1.5869471271135	-0.3080219138096715	-0.21493671268228665	1.5700465580880918	-0.3901522197056495	-0.2098700613796476	1.8397816854553735	-0.5068991219311342	-0.20903190308455735	1.7076643416464945	-0.48621719165083355	-0.21047099100540717	1.5800995097102777	-0.4739962545143018	-0.23743473612190266	1.5453658831589605	-0.45052722819872787	-0.22901711731322577	1.5459840815981505	-0.48176594162212677	-0.20139695212338887	1.5699610116145666	-0.4732469186313275	-0.20736630739973838	1.9907741996578356	-0.48295704757613056	-0.2225981326592831	2.0573350535982904	-0.48124773133911586	-0.22061047143541043	1.9878190506647593	-0.3892027563677842	-0.22635762597387307	1.9202765792319272	-0.3248171797802659	-0.23117772913357723	1.8643365750094325	-0.26241398070632793	-0.19082045205172884	1.9936367488231814	-0.5738355508643944	-0.18831043388496702	1.936945723073005	-0.6456921331424121	-0.22748360481294516	1.9098089612346096	-0.668733315871619
86	2.8666666666666667	-0.21889390784634344	1.8354120046094857	-0.44719185081229285	-0.2269466717776945	1.8335085476359458	-0.37883269375616857	-0.22177317838280972	1.7059296103550865	-0.38020007220764357	-0.22036522827667102	1.5797197952182902	-0.3759070371329135	-0.24468594867935997	1.5779836981241064	-0.32824288865494033	-0.24231096407860958	1.5869471271135	-0.3080219138096715	-0.21527084953303166	1.5719745994608851	-0.3899361143052534	-0.2096974189001118	1.8371332059572907	-0.5065486358578817	-0.20785416972661502	1.7065387127005578	-0.4916064083827334	-0.21018118732472693	1.5755955512595567	-0.4738953023503844	-0.23496549382283005	1.5428110112480204	-0.4529821011743588	-0.22954489583436816	1.543835920165529	-0.48530601342805335	-0.20114708739933682	1.5682838390706892	-0.47344135514078084	-0.20952264812547944	1.9895336484347605	-0.4806810971322031	-0.22449908786384232	2.0587250889723445	-0.479742507917459	-0.22336566716136436	1.987323730174391	-0.3816236495586624	-0.22803712604666362	1.9049063296550999	-0.3340363042045433	-0.23104793749254368	1.8337320286842447	-0.2949872210149936	-0.19181576437465572	1.9937011864115894	-0.5768578055079413	-0.1977555871644292	1.9295906306025252	-0.6272675111636433	-0.22219923871904135	1.87013979042046	-0.6537018315684788
87	2.9	-0.2201213039408414	1.8356690218848217	-0.45049491381715817	-0.2263974002873541	1.833942450579082	-0.3844155465270932	-0.22113306361319948	1.7072440625567629	-0.3856701938290309	-0.22047017045800738	1.5799972990299396	-0.37587456675328407	-0.24468594867935997	1.5779836981241064	-0.32824288865494033	-0.24231096407860958	1.5869471271135	-0.3080219138096715	-0.21548515062550916	1.570274042848934	-0.3895882815715709	-0.2109137151440257	1.8373360792427873	-0.5098515075221959	-0.20831589657214225	1.707867763035753	-0.4913580143355304	-0.21122372816076648	1.5754784732850449	-0.47707281895570997	-0.2350224208687628	1.5431051495137302	-0.4529792259062595	-0.22959364374893965	1.543967545423096	-0.4852881248587886	-0.2021721327394581	1.5681065423633986	-0.4767256889832384	-0.21032778226316973	1.9884210489820677	-0.48350367880440026	-0.22444770048724383	2.061483504919205	-0.4802252479350152	-0.22241466948478972	1.987711743798617	-0.3871871596880074	-0.2282220797347357	1.9037635594959654	-0.342633168854442	-0.23553145752395804	1.829946286974516	-0.31662397089675187	-0.19476973352897417	1.991271928441985	-0.5774170161171205	-0.19555502159366395	1.9149199592400603	-0.6062472367275116	-0.212996899756082	1.840044527699652	-0.6285150053190659
88	2.933333333333333	-0.2181044625155693	1.8343519269369803	-0.4525169694109824	-0.22420482355179683	1.833839061874785	-0.3866235809642707	-0.22134107514105122	1.7060041419061114	-0.38549190881395035	-0.22067861032270977	1.5812759045256881	-0.3756375121480753	-0.24468594867935997	1.5779836981241064	-0.32824288865494033	-0.24231096407860958	1.5869471271135	-0.3080219138096715	-0.21547050852887562	1.5702902115990292	-0.3893166991270973	-0.20979842103884502	1.8361107246519313	-0.5150920188684521	-0.20696275243221696	1.7052292571652767	-0.4970102095292857	-0.21137028138822178	1.5767172274656256	-0.4769530526976939	-0.23814597960016134	1.5436230911095792	-0.4538455898595436	-0.22995579935877866	1.5455679999998502	-0.4850487275485687	-0.20221521540841894	1.5689164982405872	-0.4765339088402248	-0.20845544995003334	1.988495888038526	-0.485684004517572	-0.2245341781613067	2.0615550165615657	-0.4802736834506016	-0.22158717328928793	1.9865883963903135	-0.39199848987929703	-0.22704061498172576	1.9032691095737326	-0.33899564867450777	-0.2374204982336969	1.831966346459041	-0.2914856063029574	-0.19290067214819873	1.990157821111255	-0.5796009043579275	-0.19503806132559634	1.904066942321895	-0.5924414297321969	-0.2061659077752796	1.8279461557361818	-0.5919667578165727
89	2.966666666666667	-0.21794914543628224	1.8330066115037948	-0.4524181364717868	-0.2242097453971423	1.83128919293436	-0.3862629007888908	-0.22212549249891572	1.7071169550780556	-0.38917397094179507	-0.2203584729365739	1.579619181114353	-0.37586899501806403	-0.24468594867935997	1.5779836981241064	-0.32824288865494033	-0.24231096407860958	1.5869471271135	-0.3080219138096715	-0.21522949170432495	1.5690897375827206	-0.3895528974417012	-0.20962416272669032	1.8347569268937345	-0.5150376313590127	-0.20707019569084043	1.7053049517999428	-0.4969671566399137	-0.21126269486947968	1.5757022993868963	-0.47707180379297753	-0.23702815420389212	1.5429175789648135	-0.4507155173714849	-0.23069646493044157	1.543852259999281	-0.4798665981118605	-0.20122238666693706	1.5683259863971948	-0.4734714710186115	-0.20832806306442686	1.9895644360557319	-0.4858230450521068	-0.22548704706656345	2.0617459202996216	-0.4833229383013215	-0.22149884338228348	1.9876749415463038	-0.39208431037502084	-0.22773664168240915	1.9056348530359974	-0.3338806502346137	-0.24242929801870017	1.8340031569420232	-0.2762869306356872	-0.19359689869927654	1.9914329226985963	-0.5827907081487693	-0.1881635799982163	1.9063006594785576	-0.5992763397783174	-0.1941130941974899	1.8331002379073775	-0.5922556603857619
90	3.0	-0.21628418685665235	1.8358726487480483	-0.4550669057888265	-0.22439031614513652	1.834065320775893	-0.386790511365049	-0.22027598660466183	1.7072395432272978	-0.3913679160734569	-0.22039484190485753	1.5796921900299614	-0.375884594616379	-0.24468594867935997	1.5779836981241064	-0.32824288865494033	-0.24231096407860958	1.5869471271135	-0.3080219138096715	-0.2153750701739403	1.5697330682814912	-0.38955079844791923	-0.20879113085988957	1.8376180766662356	-0.5209473621899622	-0.20713978683045703	1.7066893934808784	-0.49704111924552996	-0.21067494604119297	1.5752626874417572	-0.47796372581031216	-0.23695126342896278	1.5427966553563162	-0.4509280931453299	-0.22958775374369073	1.5438767251528978	-0.48530268688362393	-0.20075845865220385	1.5656565185626026	-0.474034617920379	-0.20935176545825793	1.9900085574066742	-0.4894302599521537	-0.2264708198629402	2.0616948844073173	-0.48642095952736536	-0.22259735624892904	1.9869108663188146	-0.39533257032339536	-0.22866364879837345	1.9069122351307732	-0.32873700766037417	-0.2430709370581106	1.8393673162451212	-0.2714724319525801	-0.19153275592763636	1.9939743701322548	-0.5855351240550941	-0.18790294900782795	1.9093170855746628	-0.6086184473281563	-0.1962885504816315	1.831095938565876	-0.619229978865161
91	3.033333333333333	-0.21708358461238528	1.8372018057037751	-0.45862081499008206	-0.22446468054517074	1.835564760539411	-0.395838869245686	-0.22231978296115143	1.7085665008341324	-0.38932639145515363	-0.2205273443987542	1.5830967574037071	-0.3762831090017345	-0.24468594867935997	1.5779836981241064	-0.32824288865494033	-0.24231096407860958	1.5869471271135	-0.3080219138096715	-0.2154490381077626	1.5726512012040996	-0.38997121688540526	-0.20955605169630706	1.8388936432817922	-0.524426828906342	-0.20611482754479282	1.7069175550548288	-0.5024903875705357	-0.21106995226590383	1.5771685847544614	-0.4777296667865516	-0.23680052241764685	1.5447296064586071	-0.4514016085935534	-0.22941096991602095	1.5456808099565733	-0.48588876784992857	-0.20420426531203953	1.5683288641499527	-0.47463897844200653	-0.2084407684070346	1.9901692170733503	-0.49484351501056784	-0.22754652766035188	2.060553471330785	-0.4897276566091868	-0.22166892604216815	1.9895700829153005	-0.40119655361929707	-0.22752356264670526	1.9093667306131823	-0.32589305787801665	-0.24179520271233093	1.843398926747008	-0.26890239263436894	-0.19344781523340945	1.9930735586861814	-0.5918665925471174	-0.18917414867926133	1.9095250844832778	-0.623594115572735	-0.19569811487869582	1.8327938438059346	-0.6371914388643881
